<mxfile host="app.diagrams.net" modified="2020-10-06T05:44:43.439Z" agent="5.0 (Windows NT 10.0; Win64; x64) AppleWebKit/537.36 (KHTML, like Gecko) Chrome/85.0.4183.121 Safari/537.36" etag="OxDJY3ttffPXX0qW5L3O" version="13.7.7" type="github">
  <diagram id="C5RBs43oDa-KdzZeNtuy" name="Page-1">
    <mxGraphModel dx="1483" dy="831" grid="1" gridSize="10" guides="1" tooltips="1" connect="1" arrows="1" fold="1" page="1" pageScale="1" pageWidth="827" pageHeight="1169" math="0" shadow="0">
      <root>
        <mxCell id="WIyWlLk6GJQsqaUBKTNV-0" />
        <mxCell id="WIyWlLk6GJQsqaUBKTNV-1" parent="WIyWlLk6GJQsqaUBKTNV-0" />
        <mxCell id="AhSV-trbJ5OTMqngt9kD-1" value="&lt;h1&gt;Создать пирамиду из символов &#39;#&#39;&lt;/h1&gt;" style="text;html=1;strokeColor=none;fillColor=none;spacing=5;spacingTop=-20;whiteSpace=wrap;overflow=hidden;rounded=0;" vertex="1" parent="WIyWlLk6GJQsqaUBKTNV-1">
          <mxGeometry x="40" y="40" width="440" height="40" as="geometry" />
        </mxCell>
        <mxCell id="AhSV-trbJ5OTMqngt9kD-9" style="edgeStyle=orthogonalEdgeStyle;rounded=0;orthogonalLoop=1;jettySize=auto;html=1;exitX=0.5;exitY=1;exitDx=0;exitDy=0;entryX=0.5;entryY=0;entryDx=0;entryDy=0;" edge="1" parent="WIyWlLk6GJQsqaUBKTNV-1" source="AhSV-trbJ5OTMqngt9kD-2" target="AhSV-trbJ5OTMqngt9kD-3">
          <mxGeometry relative="1" as="geometry" />
        </mxCell>
        <mxCell id="AhSV-trbJ5OTMqngt9kD-2" value="" style="ellipse;whiteSpace=wrap;html=1;aspect=fixed;fillColor=#030303;" vertex="1" parent="WIyWlLk6GJQsqaUBKTNV-1">
          <mxGeometry x="388" y="220" width="30" height="30" as="geometry" />
        </mxCell>
        <mxCell id="AhSV-trbJ5OTMqngt9kD-15" style="edgeStyle=orthogonalEdgeStyle;rounded=0;orthogonalLoop=1;jettySize=auto;html=1;exitX=0.5;exitY=1;exitDx=0;exitDy=0;entryX=0.5;entryY=0;entryDx=0;entryDy=0;" edge="1" parent="WIyWlLk6GJQsqaUBKTNV-1" source="AhSV-trbJ5OTMqngt9kD-3" target="AhSV-trbJ5OTMqngt9kD-11">
          <mxGeometry relative="1" as="geometry" />
        </mxCell>
        <mxCell id="AhSV-trbJ5OTMqngt9kD-3" value="" style="rounded=1;whiteSpace=wrap;html=1;fillColor=#FFFFFF;arcSize=29;strokeColor=#000000;" vertex="1" parent="WIyWlLk6GJQsqaUBKTNV-1">
          <mxGeometry x="343" y="290" width="120" height="60" as="geometry" />
        </mxCell>
        <mxCell id="AhSV-trbJ5OTMqngt9kD-4" value="Ввод числа N&lt;br&gt;Line := 1;&lt;br&gt;Index := 1;" style="text;html=1;strokeColor=none;fillColor=none;align=center;verticalAlign=middle;whiteSpace=wrap;rounded=0;" vertex="1" parent="WIyWlLk6GJQsqaUBKTNV-1">
          <mxGeometry x="361" y="305" width="83" height="30" as="geometry" />
        </mxCell>
        <mxCell id="AhSV-trbJ5OTMqngt9kD-18" style="edgeStyle=orthogonalEdgeStyle;rounded=0;orthogonalLoop=1;jettySize=auto;html=1;exitX=0.5;exitY=1;exitDx=0;exitDy=0;entryX=0.5;entryY=0;entryDx=0;entryDy=0;" edge="1" parent="WIyWlLk6GJQsqaUBKTNV-1" source="AhSV-trbJ5OTMqngt9kD-11" target="AhSV-trbJ5OTMqngt9kD-31">
          <mxGeometry relative="1" as="geometry">
            <mxPoint x="403.5" y="540" as="targetPoint" />
          </mxGeometry>
        </mxCell>
        <mxCell id="AhSV-trbJ5OTMqngt9kD-20" value="" style="group" vertex="1" connectable="0" parent="WIyWlLk6GJQsqaUBKTNV-1">
          <mxGeometry x="344" y="400" width="119" height="60" as="geometry" />
        </mxCell>
        <mxCell id="AhSV-trbJ5OTMqngt9kD-11" value="" style="rounded=1;whiteSpace=wrap;html=1;fillColor=#FFFFFF;arcSize=29;strokeColor=#000000;" vertex="1" parent="AhSV-trbJ5OTMqngt9kD-20">
          <mxGeometry width="119" height="60" as="geometry" />
        </mxCell>
        <mxCell id="AhSV-trbJ5OTMqngt9kD-13" value="Вывод &#39;#&#39;&lt;br&gt;inc(Index)" style="text;html=1;strokeColor=none;fillColor=none;align=center;verticalAlign=middle;whiteSpace=wrap;rounded=0;" vertex="1" parent="AhSV-trbJ5OTMqngt9kD-20">
          <mxGeometry x="29.5" y="15" width="60" height="30" as="geometry" />
        </mxCell>
        <mxCell id="AhSV-trbJ5OTMqngt9kD-38" style="edgeStyle=orthogonalEdgeStyle;rounded=0;orthogonalLoop=1;jettySize=auto;html=1;exitX=1;exitY=0.5;exitDx=0;exitDy=0;entryX=0;entryY=0.5;entryDx=0;entryDy=0;" edge="1" parent="WIyWlLk6GJQsqaUBKTNV-1" source="AhSV-trbJ5OTMqngt9kD-31" target="AhSV-trbJ5OTMqngt9kD-36">
          <mxGeometry relative="1" as="geometry" />
        </mxCell>
        <mxCell id="AhSV-trbJ5OTMqngt9kD-42" style="edgeStyle=orthogonalEdgeStyle;rounded=0;orthogonalLoop=1;jettySize=auto;html=1;exitX=0;exitY=0.5;exitDx=0;exitDy=0;entryX=0;entryY=0.5;entryDx=0;entryDy=0;" edge="1" parent="WIyWlLk6GJQsqaUBKTNV-1" source="AhSV-trbJ5OTMqngt9kD-31" target="AhSV-trbJ5OTMqngt9kD-11">
          <mxGeometry relative="1" as="geometry" />
        </mxCell>
        <mxCell id="AhSV-trbJ5OTMqngt9kD-31" value="" style="rhombus;whiteSpace=wrap;html=1;strokeColor=#000000;fillColor=#FFFFFF;" vertex="1" parent="WIyWlLk6GJQsqaUBKTNV-1">
          <mxGeometry x="240" y="630" width="130" height="80" as="geometry" />
        </mxCell>
        <mxCell id="AhSV-trbJ5OTMqngt9kD-32" value="Index &amp;gt; Line?" style="text;html=1;strokeColor=none;fillColor=none;align=center;verticalAlign=middle;whiteSpace=wrap;rounded=0;" vertex="1" parent="WIyWlLk6GJQsqaUBKTNV-1">
          <mxGeometry x="223" y="660" width="158" height="20" as="geometry" />
        </mxCell>
        <mxCell id="AhSV-trbJ5OTMqngt9kD-35" style="edgeStyle=orthogonalEdgeStyle;rounded=0;orthogonalLoop=1;jettySize=auto;html=1;exitX=0.5;exitY=0;exitDx=0;exitDy=0;entryX=1;entryY=0.5;entryDx=0;entryDy=0;" edge="1" parent="WIyWlLk6GJQsqaUBKTNV-1" source="AhSV-trbJ5OTMqngt9kD-33" target="AhSV-trbJ5OTMqngt9kD-11">
          <mxGeometry relative="1" as="geometry" />
        </mxCell>
        <mxCell id="AhSV-trbJ5OTMqngt9kD-33" value="" style="rounded=1;whiteSpace=wrap;html=1;fillColor=#FFFFFF;arcSize=29;strokeColor=#000000;" vertex="1" parent="WIyWlLk6GJQsqaUBKTNV-1">
          <mxGeometry x="550" y="470" width="180" height="80" as="geometry" />
        </mxCell>
        <mxCell id="AhSV-trbJ5OTMqngt9kD-34" value="Переход на новую строку&lt;br&gt;Index : = 1;&lt;br&gt;inc(Line);" style="text;html=1;strokeColor=none;fillColor=none;align=center;verticalAlign=middle;whiteSpace=wrap;rounded=0;" vertex="1" parent="WIyWlLk6GJQsqaUBKTNV-1">
          <mxGeometry x="567.5" y="485" width="145" height="50" as="geometry" />
        </mxCell>
        <mxCell id="AhSV-trbJ5OTMqngt9kD-50" style="edgeStyle=orthogonalEdgeStyle;rounded=0;orthogonalLoop=1;jettySize=auto;html=1;exitX=0.5;exitY=1;exitDx=0;exitDy=0;entryX=0.5;entryY=0;entryDx=0;entryDy=0;" edge="1" parent="WIyWlLk6GJQsqaUBKTNV-1" source="AhSV-trbJ5OTMqngt9kD-36" target="AhSV-trbJ5OTMqngt9kD-49">
          <mxGeometry relative="1" as="geometry" />
        </mxCell>
        <mxCell id="AhSV-trbJ5OTMqngt9kD-36" value="" style="rhombus;whiteSpace=wrap;html=1;strokeColor=#000000;fillColor=#FFFFFF;" vertex="1" parent="WIyWlLk6GJQsqaUBKTNV-1">
          <mxGeometry x="580" y="630" width="120" height="80" as="geometry" />
        </mxCell>
        <mxCell id="AhSV-trbJ5OTMqngt9kD-39" style="edgeStyle=orthogonalEdgeStyle;rounded=0;orthogonalLoop=1;jettySize=auto;html=1;entryX=0.5;entryY=1;entryDx=0;entryDy=0;exitX=0.5;exitY=0;exitDx=0;exitDy=0;" edge="1" parent="WIyWlLk6GJQsqaUBKTNV-1" source="AhSV-trbJ5OTMqngt9kD-36" target="AhSV-trbJ5OTMqngt9kD-33">
          <mxGeometry relative="1" as="geometry">
            <mxPoint x="670" y="600" as="sourcePoint" />
          </mxGeometry>
        </mxCell>
        <mxCell id="AhSV-trbJ5OTMqngt9kD-37" value="Line = N?" style="text;html=1;strokeColor=none;fillColor=none;align=center;verticalAlign=middle;whiteSpace=wrap;rounded=0;" vertex="1" parent="WIyWlLk6GJQsqaUBKTNV-1">
          <mxGeometry x="580" y="640" width="120" height="60" as="geometry" />
        </mxCell>
        <mxCell id="AhSV-trbJ5OTMqngt9kD-43" value="True" style="text;html=1;strokeColor=none;fillColor=none;align=center;verticalAlign=middle;whiteSpace=wrap;rounded=0;" vertex="1" parent="WIyWlLk6GJQsqaUBKTNV-1">
          <mxGeometry x="460" y="640" width="40" height="20" as="geometry" />
        </mxCell>
        <mxCell id="AhSV-trbJ5OTMqngt9kD-44" value="False" style="text;html=1;strokeColor=none;fillColor=none;align=center;verticalAlign=middle;whiteSpace=wrap;rounded=0;" vertex="1" parent="WIyWlLk6GJQsqaUBKTNV-1">
          <mxGeometry x="170" y="610" width="40" height="20" as="geometry" />
        </mxCell>
        <mxCell id="AhSV-trbJ5OTMqngt9kD-46" value="True" style="text;html=1;strokeColor=none;fillColor=none;align=center;verticalAlign=middle;whiteSpace=wrap;rounded=0;" vertex="1" parent="WIyWlLk6GJQsqaUBKTNV-1">
          <mxGeometry x="650" y="720" width="40" height="20" as="geometry" />
        </mxCell>
        <mxCell id="AhSV-trbJ5OTMqngt9kD-47" value="False" style="text;html=1;strokeColor=none;fillColor=none;align=center;verticalAlign=middle;whiteSpace=wrap;rounded=0;" vertex="1" parent="WIyWlLk6GJQsqaUBKTNV-1">
          <mxGeometry x="650" y="600" width="40" height="20" as="geometry" />
        </mxCell>
        <mxCell id="AhSV-trbJ5OTMqngt9kD-48" value="" style="ellipse;whiteSpace=wrap;html=1;aspect=fixed;fillColor=#030303;" vertex="1" parent="WIyWlLk6GJQsqaUBKTNV-1">
          <mxGeometry x="389" y="900" width="30" height="30" as="geometry" />
        </mxCell>
        <mxCell id="AhSV-trbJ5OTMqngt9kD-49" value="" style="ellipse;whiteSpace=wrap;html=1;aspect=fixed;fillColor=none;" vertex="1" parent="WIyWlLk6GJQsqaUBKTNV-1">
          <mxGeometry x="379" y="890" width="50" height="50" as="geometry" />
        </mxCell>
      </root>
    </mxGraphModel>
  </diagram>
</mxfile>
